# xmcd CD database file
# Copyright 1993-1996 (C) Ti Kan
#
# Track frame offsets:
#    150
#    111495
#    205277
#
# Disc length: 3417 seconds
#
# Revision: 1
# Processed by: cddbd v1.4b41PL1 Copyright (c) Steve Scherf et al.
# Submitted via: MyCDplayer 2.1.9  (wjohn@fix.net)
#
DISCID=280d5703
DTITLE=Stevie Ray Vaughan - Up Close-Radio Show - Disc 1
DYEAR=1900
DGENRE=
TTITLE0=Stevie Ray Vaughan Radio Special-1
TTITLE1=Stevie Ray Vaughan Radio Special-2
TTITLE2=Stevie Ray Vaughan Radio Special-3
EXTD=
EXTT0=
EXTT1=
EXTT2=
PLAYORDER=
